<mxfile host="65bd71144e">
    <diagram id="AcrAHJdWe1lgN4EejuBo" name="Master Tree">
        <mxGraphModel dx="1264" dy="929" grid="1" gridSize="10" guides="1" tooltips="1" connect="1" arrows="1" fold="1" page="1" pageScale="1" pageWidth="1800" pageHeight="1600" background="none" math="0" shadow="1">
            <root>
                <mxCell id="0"/>
                <mxCell id="1" parent="0"/>
                <mxCell id="36" value="" style="rounded=0;whiteSpace=wrap;html=1;labelBackgroundColor=#F5F5F5;fontSize=15;fontColor=#333333;fillColor=#f5f5f5;strokeColor=#666666;opacity=50;" parent="1" vertex="1">
                    <mxGeometry x="610" y="280" width="210" height="160" as="geometry"/>
                </mxCell>
                <mxCell id="33" value="" style="rounded=0;whiteSpace=wrap;html=1;labelBackgroundColor=#F5F5F5;fontSize=15;fontColor=#ffffff;fillColor=#7EA2A6;strokeColor=#432D57;opacity=50;" parent="1" vertex="1">
                    <mxGeometry x="240" y="280" width="370" height="520" as="geometry"/>
                </mxCell>
                <mxCell id="45" value="" style="edgeStyle=none;html=1;" parent="1" source="2" edge="1">
                    <mxGeometry relative="1" as="geometry">
                        <mxPoint x="550" y="190" as="targetPoint"/>
                    </mxGeometry>
                </mxCell>
                <mxCell id="2" value="Timid (Rabbit)" style="rounded=0;whiteSpace=wrap;html=1;fillColor=#2D393B;" parent="1" vertex="1">
                    <mxGeometry x="480" y="110" width="140" height="60" as="geometry"/>
                </mxCell>
                <mxCell id="3" value="&lt;font style=&quot;font-size: 15px&quot; color=&quot;#000000&quot;&gt;?&lt;/font&gt;" style="rounded=0;whiteSpace=wrap;html=1;fillColor=#ffff88;strokeColor=#36393d;" parent="1" vertex="1">
                    <mxGeometry x="470" y="310" width="40" height="40" as="geometry"/>
                </mxCell>
                <mxCell id="4" value="&lt;font style=&quot;font-size: 15px&quot;&gt;Scary Entity Visible&lt;/font&gt;" style="rounded=0;whiteSpace=wrap;html=1;" parent="1" vertex="1">
                    <mxGeometry x="390" y="350" width="200" height="90" as="geometry"/>
                </mxCell>
                <mxCell id="9" value="Confi&lt;br&gt;(Entitys)" style="shape=note;whiteSpace=wrap;html=1;backgroundOutline=1;darkOpacity=0.05;" parent="1" vertex="1">
                    <mxGeometry x="260" y="350" width="60" height="90" as="geometry"/>
                </mxCell>
                <mxCell id="10" value="Entity Near" style="rounded=0;whiteSpace=wrap;html=1;fontSize=15;" parent="1" vertex="1">
                    <mxGeometry x="430" y="510" width="120" height="60" as="geometry"/>
                </mxCell>
                <mxCell id="12" value="Repeat" style="rhombus;whiteSpace=wrap;html=1;fontSize=15;fillColor=#e3c800;fontColor=#000000;strokeColor=#B09500;" parent="1" vertex="1">
                    <mxGeometry x="460" y="610" width="60" height="70" as="geometry"/>
                </mxCell>
                <mxCell id="13" value="" style="endArrow=classic;html=1;fontSize=15;exitX=0.5;exitY=1;exitDx=0;exitDy=0;entryX=0.5;entryY=0;entryDx=0;entryDy=0;" parent="1" source="10" target="12" edge="1">
                    <mxGeometry width="50" height="50" relative="1" as="geometry">
                        <mxPoint x="490" y="600" as="sourcePoint"/>
                        <mxPoint x="550" y="450" as="targetPoint"/>
                    </mxGeometry>
                </mxCell>
                <mxCell id="14" value="Run from Entity" style="ellipse;whiteSpace=wrap;html=1;fontSize=15;fillColor=#fa6800;strokeColor=#C73500;fontColor=#000000;" parent="1" vertex="1">
                    <mxGeometry x="430" y="700" width="120" height="80" as="geometry"/>
                </mxCell>
                <mxCell id="15" value="" style="endArrow=classic;html=1;fontSize=15;exitX=0.5;exitY=1;exitDx=0;exitDy=0;entryX=0.5;entryY=0;entryDx=0;entryDy=0;" parent="1" source="12" target="14" edge="1">
                    <mxGeometry width="50" height="50" relative="1" as="geometry">
                        <mxPoint x="500" y="630" as="sourcePoint"/>
                        <mxPoint x="550" y="580" as="targetPoint"/>
                    </mxGeometry>
                </mxCell>
                <mxCell id="20" value="" style="endArrow=classic;html=1;fontSize=15;entryX=0.5;entryY=0;entryDx=0;entryDy=0;exitX=0.5;exitY=1;exitDx=0;exitDy=0;" parent="1" target="3" edge="1">
                    <mxGeometry width="50" height="50" relative="1" as="geometry">
                        <mxPoint x="550" y="250" as="sourcePoint"/>
                        <mxPoint x="820" y="360" as="targetPoint"/>
                    </mxGeometry>
                </mxCell>
                <mxCell id="22" value="" style="endArrow=classic;html=1;fontSize=15;exitX=0.5;exitY=1;exitDx=0;exitDy=0;entryX=0.5;entryY=0;entryDx=0;entryDy=0;" parent="1" target="40" edge="1">
                    <mxGeometry width="50" height="50" relative="1" as="geometry">
                        <mxPoint x="550" y="250" as="sourcePoint"/>
                        <mxPoint x="820" y="360" as="targetPoint"/>
                    </mxGeometry>
                </mxCell>
                <mxCell id="23" value="" style="endArrow=none;dashed=1;html=1;dashPattern=1 3;strokeWidth=2;fontSize=15;entryX=0;entryY=0.5;entryDx=0;entryDy=0;" parent="1" source="9" target="4" edge="1">
                    <mxGeometry width="50" height="50" relative="1" as="geometry">
                        <mxPoint x="320" y="404" as="sourcePoint"/>
                        <mxPoint x="490" y="404.58" as="targetPoint"/>
                    </mxGeometry>
                </mxCell>
                <mxCell id="25" value="&lt;font style=&quot;font-size: 15px&quot; color=&quot;#000000&quot;&gt;?&lt;/font&gt;" style="rounded=0;whiteSpace=wrap;html=1;fillColor=#ffff88;strokeColor=#36393d;" parent="1" vertex="1">
                    <mxGeometry x="470" y="470" width="40" height="40" as="geometry"/>
                </mxCell>
                <mxCell id="30" value="&lt;span style=&quot;background-color: rgb(245 , 245 , 245)&quot;&gt;Just player or specific Entitys?&lt;/span&gt;" style="text;html=1;strokeColor=none;fillColor=none;align=center;verticalAlign=middle;whiteSpace=wrap;rounded=0;fontSize=15;fontColor=#000000;" parent="1" vertex="1">
                    <mxGeometry x="230" y="310" width="190" height="50" as="geometry"/>
                </mxCell>
                <mxCell id="34" value="Confi&lt;br&gt;(Range)" style="shape=note;whiteSpace=wrap;html=1;backgroundOutline=1;darkOpacity=0.05;" parent="1" vertex="1">
                    <mxGeometry x="260" y="495" width="60" height="90" as="geometry"/>
                </mxCell>
                <mxCell id="35" value="" style="endArrow=none;dashed=1;html=1;dashPattern=1 3;strokeWidth=2;fontSize=15;entryX=0;entryY=0.644;entryDx=0;entryDy=0;entryPerimeter=0;" parent="1" target="10" edge="1">
                    <mxGeometry width="50" height="50" relative="1" as="geometry">
                        <mxPoint x="320" y="550" as="sourcePoint"/>
                        <mxPoint x="480" y="550" as="targetPoint"/>
                    </mxGeometry>
                </mxCell>
                <mxCell id="37" value="Default" style="text;html=1;strokeColor=none;fillColor=none;align=center;verticalAlign=middle;whiteSpace=wrap;rounded=0;labelBackgroundColor=#F5F5F5;fontSize=15;fontColor=#000000;opacity=50;" parent="1" vertex="1">
                    <mxGeometry x="685" y="390" width="60" height="30" as="geometry"/>
                </mxCell>
                <mxCell id="38" value="Move to Random Position?" style="text;html=1;strokeColor=none;fillColor=none;align=center;verticalAlign=middle;whiteSpace=wrap;rounded=0;labelBackgroundColor=#F5F5F5;fontSize=15;fontColor=#000000;opacity=50;" parent="1" vertex="1">
                    <mxGeometry x="290" y="750" width="130" height="30" as="geometry"/>
                </mxCell>
                <mxCell id="40" value="Stray" style="ellipse;whiteSpace=wrap;html=1;fontSize=15;fillColor=#fa6800;strokeColor=#C73500;fontColor=#000000;" parent="1" vertex="1">
                    <mxGeometry x="655" y="310" width="120" height="80" as="geometry"/>
                </mxCell>
                <mxCell id="54" value="Dyn Selektor" style="rounded=0;whiteSpace=wrap;html=1;fillColor=#2D393B;" parent="1" vertex="1">
                    <mxGeometry x="150" y="100" width="130" height="30" as="geometry"/>
                </mxCell>
                <mxCell id="60" value="Selektor" style="rounded=0;whiteSpace=wrap;html=1;fillColor=#2D393B;" parent="1" vertex="1">
                    <mxGeometry x="10" y="100" width="130" height="30" as="geometry"/>
                </mxCell>
                <mxCell id="61" value="" style="group" parent="1" vertex="1" connectable="0">
                    <mxGeometry x="7.5" y="130" width="130" height="80" as="geometry"/>
                </mxCell>
                <mxCell id="58" value="" style="rounded=0;whiteSpace=wrap;html=1;fontSize=15;fillColor=#eeeeee;strokeColor=#36393d;" parent="61" vertex="1">
                    <mxGeometry width="130" height="80" as="geometry"/>
                </mxCell>
                <mxCell id="59" value="&lt;br&gt;" style="html=1;shadow=0;dashed=0;align=center;verticalAlign=middle;shape=mxgraph.arrows2.quadArrow;dy=5.2;dx=14.4;notch=24;arrowHead=10;" parent="61" vertex="1">
                    <mxGeometry x="15" width="95" height="80" as="geometry"/>
                </mxCell>
                <mxCell id="62" value="" style="group" parent="1" vertex="1" connectable="0">
                    <mxGeometry x="150" y="130" width="130" height="80" as="geometry"/>
                </mxCell>
                <mxCell id="49" value="" style="rounded=0;whiteSpace=wrap;html=1;fontSize=15;fillColor=#eeeeee;strokeColor=#36393d;" parent="62" vertex="1">
                    <mxGeometry width="130" height="80" as="geometry"/>
                </mxCell>
                <mxCell id="53" value="" style="shape=tapeData;whiteSpace=wrap;html=1;perimeter=ellipsePerimeter;fillColor=#FFFFFF;strokeColor=#050505;" parent="62" vertex="1">
                    <mxGeometry x="25" width="80" height="80" as="geometry"/>
                </mxCell>
                <mxCell id="50" value="&lt;br&gt;" style="html=1;shadow=0;dashed=0;align=center;verticalAlign=middle;shape=mxgraph.arrows2.quadArrow;dy=5.2;dx=14.4;notch=24;arrowHead=10;" parent="62" vertex="1">
                    <mxGeometry x="30" y="10" width="70" height="60" as="geometry"/>
                </mxCell>
                <mxCell id="63" value="" style="group" parent="1" vertex="1" connectable="0">
                    <mxGeometry x="510" y="210" width="100" height="60" as="geometry"/>
                </mxCell>
                <mxCell id="66" value="" style="group" parent="63" vertex="1" connectable="0">
                    <mxGeometry x="-10" y="-20" width="100" height="60" as="geometry"/>
                </mxCell>
                <mxCell id="55" value="" style="rounded=0;whiteSpace=wrap;html=1;fontSize=15;fillColor=#eeeeee;strokeColor=#36393d;" parent="66" vertex="1">
                    <mxGeometry width="100" height="60" as="geometry"/>
                </mxCell>
                <mxCell id="56" value="" style="shape=tapeData;whiteSpace=wrap;html=1;perimeter=ellipsePerimeter;fillColor=#FFFFFF;strokeColor=#050505;" parent="66" vertex="1">
                    <mxGeometry x="19.230769230769234" width="61.53846153846154" height="60" as="geometry"/>
                </mxCell>
                <mxCell id="57" value="&lt;br&gt;" style="html=1;shadow=0;dashed=0;align=center;verticalAlign=middle;shape=mxgraph.arrows2.quadArrow;dy=3.33;dx=8.83;notch=24;arrowHead=10;" parent="66" vertex="1">
                    <mxGeometry x="23.076923076923077" y="7.5" width="53.84615384615385" height="45" as="geometry"/>
                </mxCell>
                <mxCell id="69" value="" style="endArrow=classic;html=1;fontSize=15;entryX=0.5;entryY=0;entryDx=0;entryDy=0;exitX=0.5;exitY=1;exitDx=0;exitDy=0;" parent="1" source="4" target="25" edge="1">
                    <mxGeometry width="50" height="50" relative="1" as="geometry">
                        <mxPoint x="560" y="260" as="sourcePoint"/>
                        <mxPoint x="500" y="320" as="targetPoint"/>
                    </mxGeometry>
                </mxCell>
                <mxCell id="70" value="Selektor ? -&amp;gt;" style="text;html=1;strokeColor=none;fillColor=none;align=center;verticalAlign=middle;whiteSpace=wrap;rounded=0;labelBackgroundColor=#F5F5F5;fontSize=15;fontColor=#000000;opacity=50;" parent="1" vertex="1">
                    <mxGeometry x="320" y="450" width="130" height="30" as="geometry"/>
                </mxCell>
                <mxCell id="71" value="" style="group" parent="1" vertex="1" connectable="0">
                    <mxGeometry x="290" y="130" width="140" height="80" as="geometry"/>
                </mxCell>
                <mxCell id="72" value="" style="rounded=0;whiteSpace=wrap;html=1;fontSize=15;fillColor=#eeeeee;strokeColor=#36393d;" parent="71" vertex="1">
                    <mxGeometry width="140" height="80" as="geometry"/>
                </mxCell>
                <mxCell id="73" value="" style="shape=flexArrow;endArrow=classic;html=1;fillColor=#050505;gradientColor=#191919;strokeColor=#666666;" parent="71" edge="1">
                    <mxGeometry width="50" height="50" relative="1" as="geometry">
                        <mxPoint x="28" y="39.61333333333338" as="sourcePoint"/>
                        <mxPoint x="112" y="39.61333333333338" as="targetPoint"/>
                        <Array as="points">
                            <mxPoint x="56" y="39.61333333333323"/>
                            <mxPoint x="70" y="39.61333333333323"/>
                        </Array>
                    </mxGeometry>
                </mxCell>
                <mxCell id="75" value="Sequence" style="rounded=0;whiteSpace=wrap;html=1;fillColor=#2D393B;" parent="1" vertex="1">
                    <mxGeometry x="290" y="100" width="140" height="30" as="geometry"/>
                </mxCell>
            </root>
        </mxGraphModel>
    </diagram>
    <diagram id="44-a1upSO0jBVi5J2gOO" name="Page-2">
        <mxGraphModel dx="1038" dy="790" grid="1" gridSize="10" guides="1" tooltips="1" connect="1" arrows="1" fold="1" page="1" pageScale="1" pageWidth="1800" pageHeight="1600" math="0" shadow="0">
            <root>
                <mxCell id="bTAzBLJ3XGFyB9PZ_Up6-0"/>
                <mxCell id="bTAzBLJ3XGFyB9PZ_Up6-1" parent="bTAzBLJ3XGFyB9PZ_Up6-0"/>
            </root>
        </mxGraphModel>
    </diagram>
</mxfile>